<svg width="50" height="50" viewBox="0 0 50 50" fill="none" xmlns="http://www.w3.org/2000/svg">
<path fill-rule="evenodd" clip-rule="evenodd" d="M16.2292 31.8125L17.75 24.7083C17.9714 23.7211 18.4702 22.8176 19.1875 22.1042L33.0834 8.33335C34.4925 6.89788 36.4057 6.06831 38.4167 6.02085C39.9334 5.99912 41.3959 6.58413 42.4792 7.64585C44.8463 10.4427 44.5407 14.6192 41.7917 17.0417L27.8959 30.9375C27.1824 31.6549 26.2789 32.1536 25.2917 32.375L18.1875 33.8958H17.7917C17.2723 33.9157 16.7763 33.6795 16.4645 33.2637C16.1526 32.8479 16.0647 32.3055 16.2292 31.8125ZM21.3959 24.3333C21.104 24.6162 20.9012 24.9783 20.8125 25.375L19.7917 30.2292L24.6459 29.1875C25.0426 29.0989 25.4047 28.8961 25.6875 28.6042L39.5834 14.7083C41.1056 13.4896 41.4077 11.2927 40.2709 9.70835C39.7731 9.23274 39.1048 8.97745 38.4167 9.00002C37.2304 9.04765 36.1094 9.55585 35.2917 10.4167L21.3959 24.3333Z" fill="#454545"/>
<path d="M41.4792 22.7708C40.621 22.7821 39.9279 23.4751 39.9167 24.3333V36.1875C39.9446 37.8631 39.2985 39.4797 38.1234 40.6744C36.9482 41.8692 35.3425 42.5419 33.6667 42.5417H13.8125C10.3487 42.4738 7.5732 39.652 7.56254 36.1875V16.4167C7.61941 12.9481 10.4477 10.1662 13.9167 10.1667H25.7709C26.6338 10.1667 27.3334 9.46713 27.3334 8.60418C27.3334 7.74124 26.6338 7.04168 25.7709 7.04168H13.8125C8.61775 7.04137 4.39046 11.2222 4.33337 16.4167V36.1875C4.33337 41.4227 8.57734 45.6667 13.8125 45.6667H33.5834C38.8104 45.6552 43.0417 41.4146 43.0417 36.1875V24.3333C43.0305 23.4751 42.3375 22.7821 41.4792 22.7708Z" fill="#454545"/>
</svg>
