<svg width="11" height="11" viewBox="0 0 11 11" fill="none" xmlns="http://www.w3.org/2000/svg">
<path fill-rule="evenodd" clip-rule="evenodd" d="M2.868 7.4356C1.6193 6.74673 0.844692 5.43265 0.846683 4.00655C0.871658 2.31933 1.97619 0.83848 3.58628 0.333566C5.19637 -0.171349 6.94872 0.413599 7.93268 1.78442C8.91664 3.15523 8.91019 5.00263 7.91668 6.36655L10.4267 8.81654C10.5707 8.95973 10.6532 9.15347 10.6567 9.35655C10.6587 9.55093 10.5831 9.73809 10.4467 9.87655C10.1539 10.169 9.6795 10.169 9.38668 9.87655L6.84668 7.42655L6.84668 7.31654C5.64141 8.07884 4.1167 8.12446 2.868 7.4356ZM4.75668 6.41655C6.08769 6.41655 7.16668 5.33755 7.16668 4.00655L7.13668 4.00655C7.13678 2.68717 6.07596 1.61297 4.75668 1.59655C3.42568 1.59655 2.34668 2.67554 2.34668 4.00655C2.34668 5.33755 3.42568 6.41655 4.75668 6.41655Z" fill="black"/>
<path fill-rule="evenodd" clip-rule="evenodd" d="M2.868 7.4356C1.6193 6.74673 0.844692 5.43265 0.846683 4.00655C0.871658 2.31933 1.97619 0.83848 3.58628 0.333566C5.19637 -0.171349 6.94872 0.413599 7.93268 1.78442C8.91664 3.15523 8.91019 5.00263 7.91668 6.36655L10.4267 8.81654C10.5707 8.95973 10.6532 9.15347 10.6567 9.35655C10.6587 9.55093 10.5831 9.73809 10.4467 9.87655C10.1539 10.169 9.6795 10.169 9.38668 9.87655L6.84668 7.42655L6.84668 7.31654C5.64141 8.07884 4.1167 8.12446 2.868 7.4356ZM4.75668 6.41655C6.08769 6.41655 7.16668 5.33755 7.16668 4.00655L7.13668 4.00655C7.13678 2.68717 6.07596 1.61297 4.75668 1.59655C3.42568 1.59655 2.34668 2.67554 2.34668 4.00655C2.34668 5.33755 3.42568 6.41655 4.75668 6.41655Z" fill="black"/>
<path fill-rule="evenodd" clip-rule="evenodd" d="M2.868 7.4356C1.6193 6.74673 0.844692 5.43265 0.846683 4.00655C0.871658 2.31933 1.97619 0.83848 3.58628 0.333566C5.19637 -0.171349 6.94872 0.413599 7.93268 1.78442C8.91664 3.15523 8.91019 5.00263 7.91668 6.36655L10.4267 8.81654C10.5707 8.95973 10.6532 9.15347 10.6567 9.35655C10.6587 9.55093 10.5831 9.73809 10.4467 9.87655C10.1539 10.169 9.6795 10.169 9.38668 9.87655L6.84668 7.42655L6.84668 7.31654C5.64141 8.07884 4.1167 8.12446 2.868 7.4356ZM4.75668 6.41655C6.08769 6.41655 7.16668 5.33755 7.16668 4.00655L7.13668 4.00655C7.13678 2.68717 6.07596 1.61297 4.75668 1.59655C3.42568 1.59655 2.34668 2.67554 2.34668 4.00655C2.34668 5.33755 3.42568 6.41655 4.75668 6.41655Z" fill="black"/>
</svg>
